<?xml version="1.0" standalone="no"?><!DOCTYPE svg PUBLIC "-//W3C//DTD SVG 1.1//EN" "http://www.w3.org/Graphics/SVG/1.1/DTD/svg11.dtd"><svg t="1763876760916" class="icon" viewBox="0 0 1024 1024" version="1.1" xmlns="http://www.w3.org/2000/svg" p-id="7680" xmlns:xlink="http://www.w3.org/1999/xlink" width="32" height="32"><path d="M512.483556 390.599111a110.933333 110.933333 0 0 0-79.104 32.796445 111.36 111.36 0 0 0-32.796445 79.104c0 29.895111 11.690667 57.912889 32.796445 79.104a111.36 111.36 0 0 0 79.075555 32.796444 111.36 111.36 0 0 0 79.132445-32.796444 111.36 111.36 0 0 0 32.796444-79.075556 111.36 111.36 0 0 0-32.796444-79.132444 110.933333 110.933333 0 0 0-79.104-32.796445z m412.302222 235.52l-65.422222-55.921778c3.128889-19.000889 4.721778-38.4 4.721777-57.685333 0-19.313778-1.592889-38.798222-4.693333-57.713778l65.393778-55.893333a32.028444 32.028444 0 0 0 9.301333-35.185778l-0.910222-2.616889a442.567111 442.567111 0 0 0-79.587556-137.671111l-1.820444-2.133333a32.142222 32.142222 0 0 0-35.100445-9.500445l-81.180444 28.899556a349.184 349.184 0 0 0-99.612444-57.486222l-15.701334-84.906667a32.056889 32.056889 0 0 0-25.799111-25.685333l-2.702222-0.512a450.645333 450.645333 0 0 0-158.805333 0l-2.702223 0.512a32.056889 32.056889 0 0 0-25.770666 25.685333l-15.815111 85.304889a353.479111 353.479111 0 0 0-98.901334 57.287111L207.872 211.797333a32 32 0 0 0-35.100444 9.500445l-1.792 2.104889a445.923556 445.923556 0 0 0-79.587556 137.699555l-0.910222 2.588445c-4.494222 12.515556-0.796444 26.510222 9.301333 35.214222l66.190222 56.490667c-3.100444 18.801778-4.608 38.001778-4.608 57.002666 0 19.2 1.507556 38.4 4.608 57.002667l-65.991111 56.490667a32.028444 32.028444 0 0 0-9.301333 35.214222l0.910222 2.588444a443.648 443.648 0 0 0 79.587556 137.699556l1.792 2.104889a32.142222 32.142222 0 0 0 35.100444 9.500444l81.806222-29.098667a346.282667 346.282667 0 0 0 98.901334 57.315556l15.815111 85.276444a32.056889 32.056889 0 0 0 25.770666 25.713778l2.702223 0.512c52.536889 9.443556 106.296889 9.443556 158.805333 0l2.702222-0.512a32.085333 32.085333 0 0 0 25.799111-25.713778l15.701334-84.878222a351.516444 351.516444 0 0 0 99.612444-57.514666l81.180445 28.899555a31.971556 31.971556 0 0 0 35.100444-9.500444l1.820444-2.104889a445.923556 445.923556 0 0 0 79.587556-137.671111l0.910222-2.616889a32.284444 32.284444 0 0 0-9.500444-34.986667z m-412.302222 52.195556a175.786667 175.786667 0 1 1 0-351.601778 175.786667 175.786667 0 1 1 0 351.573333z" fill="#000000" fill-opacity=".65" p-id="7681"></path></svg>